<svg version="1.1" viewBox="0 0 100 1e3" xmlns="http://www.w3.org/2000/svg">
<defs>
  <clipPath id="burette-interieure">
    <path d="m32.5 205s2.5 7.5 12.5 7.5h7.5s8-.5 11.5-7.5v637.5l-1.5 8-3 3v14l-1 12.5v30l-2 14.5v45.5l-.5 6-3.5 11.5h-8l-3.5-11-.5-6.5v-45.5l-2.5-14.5v-30.5l-1.5-12v-14.5l-2.5-2.5-1.5-8z"/>
  </clipPath>
</defs>
 <g id="burette-contour">
  <path d="m36.937 868.01.01283-15.103c-1.9215-1.916-4.0583-1.3387-4.0314-13.429v-664.69c-3.9267-2.8303-4.8829-10.184.07478-9.9498l30.639.32296c4.8121-.557 3.8559 6.7965-.0708 9.6268v664.69c.02692 12.092-2.1099 11.513-4.0314 13.429l-.02941 15.095" fill="none" style="color:#000000;fill-opacity:0;stroke-width:1.871;stroke:#000"/>
  <path d="m56.551 923.03v47.994c-.22941 4.3734-1.3342 9.8152-4.0509 16.478h-8.0495c-2.7167-6.6624-3.8215-12.104-4.0509-16.478v-47.994" fill="none" style="color:#000000;fill-opacity:0;stroke-width:1.0814;stroke:#000"/>
  <path d="m57.623 916.31h29.154c7.582.305 7.428-5.424 7.35-9.065-.08-3.64-.08-3.282 0-6.923.078-3.641.232-9.37-7.35-9.065h-29.154" style="color:#000000;fill-opacity:.91257;fill:#cfd5ee;stroke-width:1.5;stroke:#000"/>
  <rect x="32.635" y="867.5" width="31.358" height="12.249" rx="5.784" ry="5.784" style="fill-opacity:.91257;fill-rule:evenodd;fill:#cfd5ee;stroke-linecap:round;stroke-width:1.5;stroke:#000"/>
  <path d="m58.383 879.97v26.694c-.189 6.4203-.742 12.548-2.308 17.865h-15.692c-1.566-5.3163-2.119-11.445-2.308-17.865v-26.694" style="color:#000000;fill-opacity:.91257;fill:#cfd5ee;stroke-width:1.3421;stroke:#000"/>
  <rect x="70.439" y="864.44" width="14.476" height="80.051" rx="5.784" ry="1.926" style="fill-opacity:.91257;fill-rule:evenodd;fill:#541d1d;stroke-linecap:round;stroke-width:1.5;stroke:#000"/>
  <rect x="72.372" y="869.91" width="10.609" height="69.121" rx="5.784" ry="1.926" style="fill-opacity:.91257;fill-rule:evenodd;fill:#500;stroke-linecap:round;stroke-width:1.5;stroke:#000"/>
  <rect x="15.607" y="896.35" width="19.882" height="15.533" rx="2.056" ry="5.162" style="fill-opacity:.91257;fill-rule:evenodd;fill:#cfd5ee;stroke-linecap:round;stroke-width:1.5;stroke:#000"/>
  <rect x="19.322" y="885.34" width="14.476" height="36.007" rx="5.784" ry="3.533" style="fill-opacity:.91257;fill-rule:evenodd;fill:#cfd5ee;stroke-linecap:round;stroke-width:1.5;stroke:#000"/>
  <rect x="18.299" y="894.49" width="18.846" height="19.261" rx="2.056" ry="2.056" style="fill-opacity:.91257;fill-rule:evenodd;fill:#cfd5ee;stroke-linecap:round;stroke-width:1.5;stroke:#000"/>
  <path id="graduations-25" d="m33 837.5h30.731" style="fill-opacity:0;stroke:#000"/>
  <path id="graduations-principales" d="m33.01 237.45h30.731m-30.741 25.053h30.731m-30.721 25h30.731m-30.741 25h30.731m-30.731 24.943h30.731m-30.741 25.142h30.731m-30.721 25h30.731m-30.741 25h30.731m-30.71 24.91h30.731m-30.741 25.005h30.731m-30.721 25h30.731m-30.741 25h30.731m-30.721 24.995h30.731m-30.741 25.005h30.731m-30.731 25h30.731m-30.721 25h30.731m-30.741 25h30.731m-30.721 24.995h30.731m-30.741 25.005h30.731m-30.731 25h30.731m-30.721 25h30.731m-30.741 25h30.731m-30.721 24.995h30.731m-30.741 25.005h30.731" style="fill-opacity:0;stroke:#000"/>
  <path id="graduations-0" d="m33 212.45h30.731" style="fill-opacity:0;stroke:#000"/>
  <path id="graduations-secondaires" d="m33 224.95h17.5m-17.5-10h10m-10 2.5h10m-10 2.5h10m-10 2.5h10m-10 5h10m-10 2.5h10m-10 2.5h10m-10 2.5h10m-10 15h17.5m-17.5-10h10m-10.013 2.5208h10m-10 2.5h10m-10 2.5h10m-9.9872 5.0323h10m-10 2.5h10m-10 2.5h10m-10 2.5h10m-10 15h17.5m-17.5-10h10m-10 2.5h10m-10 2.5h10m-10 2.5h10m-10 5h10m-10 2.5h10m-10 2.5h10m-10 2.5h10m-10 15h17.5m-17.5-10h10m-10.013 2.5208h10m-10 2.5h10m-10 2.5h10m-9.9872 5.0323h10m-10 2.5h10m-10 2.5h10m-10 2.5h10m-10 14.96h17.5m-17.5-9.9872h10m-10 2.5h10m-10 2.5h10m-10 2.5h10m-10 4.9744h10m-10 2.5h10m-10 2.5h10m-10 2.5h10m-10 15h17.5m-17.5-10h10m-10 2.5h10m-10 2.5h10m-10 2.5h10m-10 5h10m-10 2.5h10m-10 2.5h10m-10 2.5h10m-10.01 15.085h17.5m-17.5-10h10m-10 2.5h10m-10 2.5h10m-10 2.5h10m-10 5h10m-10 2.5h10m-10 2.5h10m-10 2.5h10m-10 15h17.5m-17.5-10h10m-10.013 2.5208h10m-10 2.5h10m-10 2.5h10m-9.9872 5.0323h10m-10 2.5h10m-10 2.5h10m-10 2.5h10m-10 14.96h17.5m-17.5-9.9872h10m-10 2.5h10m-10 2.5h10m-10 2.5h10m-10 4.9744h10m-10 2.5h10m-10 2.5h10m-10 2.5h10m-10.038 14.915h17.5m-17.452-10h10m-10 2.5h10m-10 2.5h10m-10 2.5h10m-10.048 5h10m-10 2.5h10m-10 2.5h10m-9.9624 2.5854h10m-9.9895 14.915h17.5m-17.5-10h10m-10 2.5h10m-10 2.5h10m-10 2.5h10m-10 5h10m-10 2.5h10m-10 2.5h10m-10 2.5h10m-10 15h17.5m-17.5-10h10m-10.013 2.5208h10m-10 2.5h10m-10 2.5h10m-9.9872 5.0323h10m-10 2.5h10m-10 2.5h10m-10 2.5h10m-10 14.96h17.5m-17.5-9.9872h10m-10 2.5h10m-10 2.5h10m-10 2.5h10m-10 4.9744h10m-10 2.5h10m-10 2.5h10m-10 2.5h10m-10 15h17.5m-17.5-10h10m-10 2.5h10m-10 2.5h10m-10 2.5h10m-10 5h10m-10 2.5h10m-10 2.5h10m-10 2.5h10m-10 15h17.5m-17.5-10h10m-10 2.5h10m-10 2.5h10m-10 2.5h10m-10 5h10m-10 2.5h10m-10 2.5h10m-10 2.5h10m-10 15h17.5m-17.5-10h10m-10 2.5h10m-10 2.5h10m-10 2.5h10m-10 5h10m-10 2.5h10m-10 2.5h10m-10 2.5h10m-10 15h17.5m-17.5-10h10m-10.013 2.5208h10m-10 2.5h10m-10 2.5h10m-9.9872 5.0323h10m-10 2.5h10m-10 2.5h10m-10 2.5h10m-10 14.96h17.5m-17.5-9.9872h10m-10 2.5h10m-10 2.5h10m-10 2.5h10m-10 4.9744h10m-10 2.5h10m-10 2.5h10m-10 2.5h10m-10 15h17.5m-17.5-10h10m-10 2.5h10m-10 2.5h10m-10 2.5h10m-10 5h10m-10 2.5h10m-10 2.5h10m-10 2.5h10m-10 15h17.5m-17.5-10h10m-10 2.5h10m-10 2.5h10m-10 2.5h10m-10 5h10m-10 2.5h10m-10 2.5h10m-10 2.5h10m-10 15h17.5m-17.5-10h10m-10 2.5h10m-10 2.5h10m-10 2.5h10m-10 5h10m-10 2.5h10m-10 2.5h10m-10 2.5h10m-10 15h17.5m-17.5-10h10m-10.013 2.5208h10m-10 2.5h10m-10 2.5h10m-9.9872 5.0323h10m-10 2.5h10m-10 2.5h10m-10 2.5h10m-10 14.96h17.5m-17.5-9.9872h10m-10 2.5h10m-10 2.5h10m-10 2.5h10m-10 4.9744h10m-10 2.5h10m-10 2.5h10m-10 2.5h10m-10 15h17.5m-17.5-10h10m-10 2.5h10m-10 2.5h10m-10 2.5h10m-10 5h10m-10 2.5h10m-10 2.5h10m-10 2.5h10m-10 15h17.5m-17.5-10h10m-10 2.5h10m-10 2.5h10m-10 2.5h10m-10 5h10m-10 2.5h10m-10 2.5h10m-10 2.5h10" style="fill-opacity:0;stroke-width:.7;stroke:#000"/>
  <g id="label-graduations">
   <text x="52.812111" y="210.48007" style="fill:#000000;stroke-width:.7;stroke:#000000" xml:space="preserve"><tspan x="52.812111" y="210.48007">0</tspan></text>
   <text x="53.064064" y="335.48007" style="fill:#000000;stroke-width:.7;stroke:#000000" xml:space="preserve"><tspan x="53.064064" y="335.48007">5</tspan></text>
   <text x="45.177605" y="460.54315" style="fill:#000000;stroke-width:.7;stroke:#000000" xml:space="preserve"><tspan x="45.177605" y="460.54315">10</tspan></text>
   <text x="45.327793" y="585.46405" style="fill:#000000;stroke-width:.7;stroke:#000000" xml:space="preserve"><tspan x="45.327793" y="585.46405">15</tspan></text>
   <text x="45.426834" y="710.46405" style="fill:#000000;stroke-width:.7;stroke:#000000" xml:space="preserve"><tspan x="45.426834" y="710.46405">20</tspan></text>
   <text x="45.426834" y="835.62738" style="fill:#000000;stroke-width:.7;stroke:#000000" xml:space="preserve"><tspan x="45.426834" y="835.62738">25</tspan></text>
  </g>
 </g>
</svg>
