<svg xmlns="http://www.w3.org/2000/svg" viewBox="0 0 210 297">
<defs>
  <clipPath id="burette-interieur">
    <path d="m84.744 12.98s.02048 2.3082 3.8807 2.3082c3.8602 0 3.8468-2.2886 3.8468-2.2886l.01333 159.32-.24356 2.8116-.81182 1.059-.28816 6.7989-.01376 7.105-.17717 2.0245-.26931 1.6882v12.057l-.38323 2.2833-.63445 1.8564h-2.0222l-.64138-1.7096-.3763-2.4301-.0042-11.681-.41592-2.1091-.16391-9.0852-.28562-3.3257.0029-3.4731-.94841-1.1866-.04386-2.684z"/>
  </clipPath>

  <clipPath id="becher-interieur">
    <path d="m77.279 225h37.721v40s0 3.4786-4 3.4562c-4-.0222-30 0-30 0s-3.7512.0641-3.7574-3.4197c-.006165-3.4838.036894-40.037.036894-40.037z"/>
  </clipPath>
</defs>
  <g id="agitateur" fill="#d4d4d4" stroke="#000" stroke-width=".501" transform="matrix(1.0566 0 0 1.0566 69.145 271.89)">
    <path d="M.108-2.897H50.025V17.02H.108z"/>
    <circle cx="25.027" cy="7.022" r="4.798" fill="#696969"/>
  </g>
  <g id="potence" stroke="#000">
    <path fill="#d4d4d4" stroke-width=".314" d="m60.265 200.68h42.637v5.1585h-42.637z"/>
    <path fill="#d4d4d4" stroke-width=".026" d="m80 83s4 13 15 13c0 0 2.4955-1e-6 2.5-2.5.004-2.5-2.5-2.5-2.5-2.5s-7.231 2.26-11.231-8.3829"/>
    <path fill="#d4d4d4" stroke-width=".026" d="m80 78s4-13 15-13c0 0 2.4955 1e-6 2.5 2.5.0045 2.5-2.5 2.5-2.5 2.5s-7.3545-2.1066-11.354 8.5364"/>
    <path fill="#d4d4d4" stroke-width=".227" d="m60.267 77.969h21.731v5.302h-21.731z"/>
    <circle cx="95" cy="67.5" r="2.5" fill="#d4d4d4" stroke-width=".529"/>
    <circle cx="95" cy="93.5" r="2.5" fill="#d4d4d4" stroke-width=".529"/>
    <circle cx="82.265" cy="80.62" r="2.5" fill="#d4d4d4" stroke-width=".529"/>
    <path fill="#d4d4d4" stroke-width=".016" d="m100.42 203.52s3.3662 6.1597 12.623 6.1597c0 0 2.1001 0 2.1039-1.1846.003-1.1846-2.1039-1.1846-2.1039-1.1846s-6.0852 1.0708-9.4514-3.972"/>
    <path fill="#d4d4d4" stroke-width=".529" d="m55.265 24.735h5v270h-5z" style="mix-blend-mode:normal"/>
    <path fill="#4d4d4d" stroke-width=".265" d="m49.149 290h75.701v5h-75.701z"/>
    <circle cx="114.16" cy="208.5" r="2.5" fill="#d4d4d4" stroke-width=".529"/>
    <path fill="#d4d4d4" stroke-width=".016" d="m100.42 203.16s3.3662-6.1597 12.623-6.1597c0 0 2.1001 0 2.1039 1.1846.003 1.1846-2.1039 1.1846-2.1039 1.1846s-6.0852-1.0708-9.4514 3.972"/>
    <circle cx="114.16" cy="-198.19" r="2.5" fill="#d4d4d4" stroke-width=".529" transform="scale(1,-1)"/>
    <circle cx="102.92" cy="203.16" r="2.5" fill="#d4d4d4" stroke-width=".529"/>
  </g>
  <g id="électrode-ph" stroke="#000" transform="translate(17.587 10.554)">
    <circle cx="90.799" cy="250.61" r="2.514" fill="#cfd5ef" fill-opacity=".914" stroke-width=".473"/>
    <path fill="#1a1a1a" stroke-width=".498" d="m88.604 221.37v-27.044h4.3789v54.089h-4.3789z"/>
    <path fill="#1a1a1a" stroke-width=".397" d="M87.834 184.54H93.682V200.668H87.834z"/>
  </g>
  <g id="burette-contour" stroke="#000" transform="matrix(.25122 0 0 .25122 76.474 -38.084)">
    <path fill="none" fill-opacity="0" stroke-width="1.871" d="m36.937 868.01.01283-15.103c-1.9215-1.916-4.0583-1.3387-4.0314-13.429v-664.69c-3.9267-2.8303-4.8829-10.184.07478-9.9498l30.639.32296c4.8121-.557 3.8559 6.7965-.0708 9.6268v664.69c.02692 12.092-2.1099 11.513-4.0314 13.429l-.02941 15.095"/>
    <path fill="none" fill-opacity="0" stroke-width="1.081" d="m56.551 923.03v47.994c-.22941 4.3734-1.3342 9.8152-4.0509 16.478h-8.0495c-2.7167-6.6624-3.8215-12.104-4.0509-16.478v-47.994"/>
    <path fill="#cfd5ee" fill-opacity=".913" stroke-width="1.5" d="m57.623 916.31h29.154c7.582.305 7.428-5.424 7.35-9.065-.08-3.64-.08-3.282 0-6.923.078-3.641.232-9.37-7.35-9.065h-29.154"/>
    <rect width="31.358" height="12.249" x="32.635" y="867.5" fill="#cfd5ee" fill-opacity=".913" fill-rule="evenodd" stroke-linecap="round" stroke-width="1.5" rx="5.784" ry="5.784"/>
    <path fill="#cfd5ee" fill-opacity=".913" stroke-width="1.342" d="m58.383 879.97v26.694c-.189 6.4203-.742 12.548-2.308 17.865h-15.692c-1.566-5.3163-2.119-11.445-2.308-17.865v-26.694"/>
    <rect width="14.476" height="80.051" x="70.439" y="864.44" fill="#541d1d" fill-opacity=".913" fill-rule="evenodd" stroke-linecap="round" stroke-width="1.5" rx="5.784" ry="1.926"/>
    <rect width="10.609" height="69.121" x="72.372" y="869.91" fill="#500" fill-opacity=".913" fill-rule="evenodd" stroke-linecap="round" stroke-width="1.5" rx="5.784" ry="1.926"/>
    <rect width="19.882" height="15.533" x="15.607" y="896.35" fill="#cfd5ee" fill-opacity=".913" fill-rule="evenodd" stroke-linecap="round" stroke-width="1.5" rx="2.056" ry="5.162"/>
    <rect width="14.476" height="36.007" x="19.322" y="885.34" fill="#cfd5ee" fill-opacity=".913" fill-rule="evenodd" stroke-linecap="round" stroke-width="1.5" rx="5.784" ry="3.533"/>
    <rect width="18.846" height="19.261" x="18.299" y="894.49" fill="#cfd5ee" fill-opacity=".913" fill-rule="evenodd" stroke-linecap="round" stroke-width="1.5" rx="2.056" ry="2.056"/>
    <path fill-opacity="0" d="m33 837.5h30.731"/>
    <path id="graduations-principales" fill-opacity="0" d="m33.01 237.45h30.731m-30.741 25.053h30.731m-30.721 25h30.731m-30.741 25h30.731m-30.731 24.943h30.731m-30.741 25.142h30.731m-30.721 25h30.731m-30.741 25h30.731m-30.71 24.91h30.731m-30.741 25.005h30.731m-30.721 25h30.731m-30.741 25h30.731m-30.721 24.995h30.731m-30.741 25.005h30.731m-30.731 25h30.731m-30.721 25h30.731m-30.741 25h30.731m-30.721 24.995h30.731m-30.741 25.005h30.731m-30.731 25h30.731m-30.721 25h30.731m-30.741 25h30.731m-30.721 24.995h30.731m-30.741 25.005h30.731"/>
    <path fill-opacity="0" d="m33 212.45h30.731"/>
    <path id="graduations-secondaires" fill-opacity="0" stroke-width=".7" d="m33 224.95h17.5m-17.5-10h10m-10 2.5h10m-10 2.5h10m-10 2.5h10m-10 5h10m-10 2.5h10m-10 2.5h10m-10 2.5h10m-10 15h17.5m-17.5-10h10m-10.013 2.5208h10m-10 2.5h10m-10 2.5h10m-9.9872 5.0323h10m-10 2.5h10m-10 2.5h10m-10 2.5h10m-10 15h17.5m-17.5-10h10m-10 2.5h10m-10 2.5h10m-10 2.5h10m-10 5h10m-10 2.5h10m-10 2.5h10m-10 2.5h10m-10 15h17.5m-17.5-10h10m-10.013 2.5208h10m-10 2.5h10m-10 2.5h10m-9.9872 5.0323h10m-10 2.5h10m-10 2.5h10m-10 2.5h10m-10 14.96h17.5m-17.5-9.9872h10m-10 2.5h10m-10 2.5h10m-10 2.5h10m-10 4.9744h10m-10 2.5h10m-10 2.5h10m-10 2.5h10m-10 15h17.5m-17.5-10h10m-10 2.5h10m-10 2.5h10m-10 2.5h10m-10 5h10m-10 2.5h10m-10 2.5h10m-10 2.5h10m-10.01 15.085h17.5m-17.5-10h10m-10 2.5h10m-10 2.5h10m-10 2.5h10m-10 5h10m-10 2.5h10m-10 2.5h10m-10 2.5h10m-10 15h17.5m-17.5-10h10m-10.013 2.5208h10m-10 2.5h10m-10 2.5h10m-9.9872 5.0323h10m-10 2.5h10m-10 2.5h10m-10 2.5h10m-10 14.96h17.5m-17.5-9.9872h10m-10 2.5h10m-10 2.5h10m-10 2.5h10m-10 4.9744h10m-10 2.5h10m-10 2.5h10m-10 2.5h10m-10.038 14.915h17.5m-17.452-10h10m-10 2.5h10m-10 2.5h10m-10 2.5h10m-10.048 5h10m-10 2.5h10m-10 2.5h10m-9.9624 2.5854h10m-9.9895 14.915h17.5m-17.5-10h10m-10 2.5h10m-10 2.5h10m-10 2.5h10m-10 5h10m-10 2.5h10m-10 2.5h10m-10 2.5h10m-10 15h17.5m-17.5-10h10m-10.013 2.5208h10m-10 2.5h10m-10 2.5h10m-9.9872 5.0323h10m-10 2.5h10m-10 2.5h10m-10 2.5h10m-10 14.96h17.5m-17.5-9.9872h10m-10 2.5h10m-10 2.5h10m-10 2.5h10m-10 4.9744h10m-10 2.5h10m-10 2.5h10m-10 2.5h10m-10 15h17.5m-17.5-10h10m-10 2.5h10m-10 2.5h10m-10 2.5h10m-10 5h10m-10 2.5h10m-10 2.5h10m-10 2.5h10m-10 15h17.5m-17.5-10h10m-10 2.5h10m-10 2.5h10m-10 2.5h10m-10 5h10m-10 2.5h10m-10 2.5h10m-10 2.5h10m-10 15h17.5m-17.5-10h10m-10 2.5h10m-10 2.5h10m-10 2.5h10m-10 5h10m-10 2.5h10m-10 2.5h10m-10 2.5h10m-10 15h17.5m-17.5-10h10m-10.013 2.5208h10m-10 2.5h10m-10 2.5h10m-9.9872 5.0323h10m-10 2.5h10m-10 2.5h10m-10 2.5h10m-10 14.96h17.5m-17.5-9.9872h10m-10 2.5h10m-10 2.5h10m-10 2.5h10m-10 4.9744h10m-10 2.5h10m-10 2.5h10m-10 2.5h10m-10 15h17.5m-17.5-10h10m-10 2.5h10m-10 2.5h10m-10 2.5h10m-10 5h10m-10 2.5h10m-10 2.5h10m-10 2.5h10m-10 15h17.5m-17.5-10h10m-10 2.5h10m-10 2.5h10m-10 2.5h10m-10 5h10m-10 2.5h10m-10 2.5h10m-10 2.5h10m-10 15h17.5m-17.5-10h10m-10 2.5h10m-10 2.5h10m-10 2.5h10m-10 5h10m-10 2.5h10m-10 2.5h10m-10 2.5h10m-10 15h17.5m-17.5-10h10m-10.013 2.5208h10m-10 2.5h10m-10 2.5h10m-9.9872 5.0323h10m-10 2.5h10m-10 2.5h10m-10 2.5h10m-10 14.96h17.5m-17.5-9.9872h10m-10 2.5h10m-10 2.5h10m-10 2.5h10m-10 4.9744h10m-10 2.5h10m-10 2.5h10m-10 2.5h10m-10 15h17.5m-17.5-10h10m-10 2.5h10m-10 2.5h10m-10 2.5h10m-10 5h10m-10 2.5h10m-10 2.5h10m-10 2.5h10m-10 15h17.5m-17.5-10h10m-10 2.5h10m-10 2.5h10m-10 2.5h10m-10 5h10m-10 2.5h10m-10 2.5h10m-10 2.5h10"/>
    <g id="label-graduations" stroke-width=".7">
      <text xml:space="preserve" x="52.812" y="210.48"><tspan x="52.812" y="210.48">0</tspan></text>
      <text xml:space="preserve" x="53.064" y="335.48"><tspan x="53.064" y="335.48">5</tspan></text>
      <text xml:space="preserve" x="45.178" y="460.543"><tspan x="45.178" y="460.543">10</tspan></text>
      <text xml:space="preserve" x="45.328" y="585.464"><tspan x="45.328" y="585.464">15</tspan></text>
      <text xml:space="preserve" x="45.427" y="710.464"><tspan x="45.427" y="710.464">20</tspan></text>
      <text xml:space="preserve" x="45.427" y="835.627"><tspan x="45.427" y="835.627">25</tspan></text>
    </g>
  </g>
  <path id="becher-contour" fill-opacity="0" stroke="#000" stroke-width=".529" d="m111.07 215.08h-29.896c-4.8584 0-7.8674 3.7942-7.8674 3.7942 3.9337 0 3.9337 4.1737 3.9337 4.1737v41.737c0 3.7942 3.9337 3.7942 3.9337 3.7942h29.503c4.3271 0 4.3271-3.7942 4.3271-3.7942v-45.91s0-3.7942-3.9337-3.7942z"/>
  <g id="ph-metre" stroke="#000">
    <path fill="#4d4d4d" d="M132.85 258.33H197.551V295.001H132.85z"/>
    <circle cx="175.63" cy="286.25" r="3.749" fill="#696969" stroke-width=".37"/>
    <circle cx="187.63" cy="286.25" r="3.749" fill="#696969" stroke-width=".37"/>
    <path id="écran" fill="#fff" stroke-width=".549" d="M141.83 264.33H188.573V279.615H141.83z"/>
    <text xml:space="preserve" x="135.872" y="288.414" fill="#fff" stroke-width=".05" font-size="6.581" style="line-height:.1"><tspan x="135.872" y="288.414" style="line-height:.1">pH-mètre</tspan></text>
    <path fill="none" d="m108.46 194.94c-.22142-2.0434.11454-4.1444.9621-6.0169.84757-1.8724 2.2045-3.5113 3.8859-4.6934 1.6814-1.1821 3.6829-1.9041 5.7317-2.0679 2.0488-.16373 4.1395.23132 5.9874 1.1313 2.0429.99503 3.7634 2.5857 5.086 4.4334 1.3227 1.8477 2.2616 3.9485 2.9569 6.1118 1.6215 5.0449 1.9396 10.415 1.9054 15.714-.0342 5.299-.40777 10.602-.11803 15.893.6423 11.729 4.6208 23.258 11.35 32.887"/>
  </g>
</svg>
